<?xml version="1.0" standalone="no"?><!DOCTYPE svg PUBLIC "-//W3C//DTD SVG 1.1//EN" "http://www.w3.org/Graphics/SVG/1.1/DTD/svg11.dtd"><svg t="1756196970967" class="icon" viewBox="0 0 1024 1024" version="1.1" xmlns="http://www.w3.org/2000/svg" p-id="30029" xmlns:xlink="http://www.w3.org/1999/xlink" width="32" height="32"><path d="M290.747706 90.343725a313.107798 313.107798 0 0 0-55.90047 72.703193 304.124625 304.124625 0 0 0-31.650558 85.223781A297.654879 297.654879 0 0 0 227.81895 440.361659a304.403895 304.403895 0 0 0 52.130331 75.263164c3.537415 3.723595 7.16792 7.400645 10.84497 10.984606L516.956105 744.719008l226.208399-218.109579a308.453304 308.453304 0 0 0 84.199793-143.17223 303.938445 303.938445 0 0 0 9.215897-59.85679 298.678867 298.678867 0 0 0-53.619768-186.552111 307.894765 307.894765 0 0 0-51.199432-57.157184A317.576112 317.576112 0 0 0 653.705133 29.649126a326.745465 326.745465 0 0 0-105.37774-28.159688 331.958498 331.958498 0 0 0-153.784475 21.969211 326.000746 326.000746 0 0 0-80.522743 46.544938 317.995017 317.995017 0 0 0-23.272469 20.340138z m419.881886 170.354473a187.250286 187.250286 0 0 1-2.047977 102.678133 187.296831 187.296831 0 0 1-25.366991 52.130331 192.602954 192.602954 0 0 1-40.121737 42.542073 200.934497 200.934497 0 0 1-74.006451 36.584321 206.79916 206.79916 0 0 1-160.859306-24.249912 199.212335 199.212335 0 0 1-52.083786-47.196568A193.720032 193.720032 0 0 1 328.216381 372.359504a188.181184 188.181184 0 0 1-10.705335-79.591844 187.017561 187.017561 0 0 1 36.584321-96.441111 192.556409 192.556409 0 0 1 41.518085-41.28536 199.212335 199.212335 0 0 1 52.31651-27.694239 204.797727 204.797727 0 0 1 82.38454-11.356964 207.078429 207.078429 0 0 1 90.436815 27.601148 203.215199 203.215199 0 0 1 37.561765 28.438957 190.694611 190.694611 0 0 1 52.31651 88.714652z" fill="#6bd452" p-id="30030"></path><path d="M456.95968 408.664556a120.923749 120.923749 0 0 0 44.590051 15.452919 121.156474 121.156474 0 0 0 35.653422-0.139635 123.85608 123.85608 0 0 0 54.317943-22.201935 119.155041 119.155041 0 0 0 31.324743-34.303619 111.987121 111.987121 0 0 0 15.732189-49.01182 118.224143 118.224143 0 0 0-0.558539-22.993199 111.847486 111.847486 0 0 0-18.012891-48.267101 113.848918 113.848918 0 0 0-23.458649-25.878986 121.482288 121.482288 0 0 0-35.467243-20.247048 122.971726 122.971726 0 0 0-63.254571-6.004297 123.204451 123.204451 0 0 0-61.904767 29.788761 118.596502 118.596502 0 0 0-24.529182 31.324743 113.802373 113.802373 0 0 0-13.265308 54.364487 112.685295 112.685295 0 0 0 35.699968 80.988193 117.991418 117.991418 0 0 0 23.086289 17.175082z" fill="#6bd452" fill-opacity=".5" p-id="30031"></path><path d="M906.304512 540.38673a58.274262 58.274262 0 0 1 15.546009-2.792696 51.571791 51.571791 0 0 1 12.660223 1.070534 53.061229 53.061229 0 0 1 17.593987 6.795561 58.088083 58.088083 0 0 1 9.867526 7.679914 51.757971 51.757971 0 0 1 14.847836 29.835306 47.987831 47.987831 0 0 1 0.372359 6.143932v260.651652c0 31.557468-18.385251 60.41533-48.63946 75.263165l-239.008257 87.132124c-25.273901 12.427498-55.202296 12.194774-78.52131 0.18618l-262.69963-83.780888-230.723258 92.438246a60.973869 60.973869 0 0 1-12.380954 2.699607 46.079489 46.079489 0 0 1-7.63337 0.232725 57.622633 57.622633 0 0 1-17.314717-3.444326 52.363055 52.363055 0 0 1-2.327246-0.930899l-6.097387-3.165055a73.215188 73.215188 0 0 1-5.585393-3.77014 43.007523 43.007523 0 0 1-6.190477-5.631938 47.941286 47.941286 0 0 1-6.935195-9.308987A49.663449 49.663449 0 0 1 46.293692 972.509935v-295.374177a49.709994 49.709994 0 0 1 11.450054-32.022917 51.339067 51.339067 0 0 1 15.592555-12.939493 67.49016 67.49016 0 0 1 3.351235-1.675618l83.315439-38.213394a51.199432 51.199432 0 0 1 10.426066-3.351235 42.960978 42.960978 0 0 1 13.172218-0.651629 43.286792 43.286792 0 0 1 10.751881 2.327247 46.126034 46.126034 0 0 1 19.641963 13.265307 38.865023 38.865023 0 0 1 4.933764 7.07483 44.450416 44.450416 0 0 1 4.887218 14.103117 43.007523 43.007523 0 0 1-1.396348 18.943789 41.424995 41.424995 0 0 1-8.238454 14.940926 43.752242 43.752242 0 0 1-15.546009 11.775869l-62.370217 28.625137v217.27177l172.40245-65.861087a82.524175 82.524175 0 0 1 16.942358-6.330111 89.040466 89.040466 0 0 1 53.619768 2.653061l7.959185 3.537415 262.559995 83.734344 237.379184-86.573585V638.59655l-27.182244 9.122808a40.680276 40.680276 0 0 1-8.610813 2.001432 43.379882 43.379882 0 0 1-10.984606 0.139635 50.408168 50.408168 0 0 1-10.705335-2.420337 47.708561 47.708561 0 0 1-13.358398-7.44719 43.286792 43.286792 0 0 1-15.546009-40.075192 41.424995 41.424995 0 0 1 7.307555-17.687076 38.678843 38.678843 0 0 1 5.631938-6.516292 53.526679 53.526679 0 0 1 6.888651-5.352667 42.588618 42.588618 0 0 1 9.914072-4.654494l75.821704-25.320447z" fill="#6bd452" p-id="30032"></path></svg>