<?xml version="1.0" standalone="no"?><!DOCTYPE svg PUBLIC "-//W3C//DTD SVG 1.1//EN" "http://www.w3.org/Graphics/SVG/1.1/DTD/svg11.dtd"><svg t="1755856068734" class="icon" viewBox="0 0 1024 1024" version="1.1" xmlns="http://www.w3.org/2000/svg" p-id="19626" xmlns:xlink="http://www.w3.org/1999/xlink" width="16" height="16"><path d="M512 192a320 320 0 1 0 0 640 320 320 0 0 0 0-640zM85.333333 512C85.333333 276.352 276.352 85.333333 512 85.333333s426.666667 191.018667 426.666667 426.666667-191.018667 426.666667-426.666667 426.666667S85.333333 747.648 85.333333 512z" fill="#6bd452" p-id="19627"></path><path d="M332.074667 332.074667a53.333333 53.333333 0 0 1 75.434666 0l284.416 284.416a53.333333 53.333333 0 1 1-75.434666 75.434666L332.074667 407.509333a53.333333 53.333333 0 0 1 0-75.434666z" fill="#6bd452" p-id="19628"></path><path d="M691.925333 332.074667a53.333333 53.333333 0 0 1 0 75.434666l-284.416 284.416a53.333333 53.333333 0 1 1-75.434666-75.434666l284.416-284.416a53.333333 53.333333 0 0 1 75.434666 0z" fill="#6bd452" p-id="19629"></path></svg>