<?xml version="1.0" standalone="no"?><!DOCTYPE svg PUBLIC "-//W3C//DTD SVG 1.1//EN" "http://www.w3.org/Graphics/SVG/1.1/DTD/svg11.dtd"><svg t="1756196856426" class="icon" viewBox="0 0 1114 1024" version="1.1" xmlns="http://www.w3.org/2000/svg" p-id="27274" xmlns:xlink="http://www.w3.org/1999/xlink" width="34.8125" height="32"><path d="M545.879102 513.350337c-4.052766-18.012293 9.006146-37.825814 23.506041-52.235649l445.353933-444.183133a57.90952 57.90952 0 1 1 81.865869 82.136054L672.775702 512.35966l423.829243 412.57156a57.819459 57.819459 0 0 1-40.887904 99.067609 57.729397 57.729397 0 0 1-40.887904-16.931555L569.385143 563.514571C557.136784 549.374922 542.817012 531.362629 545.879102 513.350337z" fill="#6bd452" p-id="27275"></path><path d="M24.333172 461.20475L469.597043 16.931555A57.90952 57.90952 0 1 1 551.462912 99.067609L127.723731 512.35966l423.829243 412.57156a57.819459 57.819459 0 0 1-40.887904 99.067609 57.729397 57.729397 0 0 1-40.887904-16.931555L24.333172 563.514571C11.994752 549.374922-2.325021 531.362629 0.737069 513.350337c-4.052766-18.012293 9.276331-37.825814 23.596103-52.145587z" fill="#6bd452" p-id="27276"></path></svg>