<?xml version="1.0" standalone="no"?><!DOCTYPE svg PUBLIC "-//W3C//DTD SVG 1.1//EN" "http://www.w3.org/Graphics/SVG/1.1/DTD/svg11.dtd"><svg t="1756195335483" class="icon" viewBox="0 0 1024 1024" version="1.1" xmlns="http://www.w3.org/2000/svg" p-id="23212" xmlns:xlink="http://www.w3.org/1999/xlink" width="32" height="32"><path d="M128 704v128a64 64 0 0 0 56.512 63.552L192 896l128-0.064v76.8L192 972.8a140.8 140.8 0 0 1-140.416-130.752L51.2 832v-128H128z m844.8 0v128a140.8 140.8 0 0 1-140.8 140.8l-128-0.064v-76.8L832 896a64 64 0 0 0 63.552-56.512L896 832v-128h76.8zM640 320a64 64 0 0 1 64 64v256a64 64 0 0 1-64 64H384a64 64 0 0 1-64-64V384a64 64 0 0 1 64-64h256z m-12.8 76.8H396.8v230.4h230.4V396.8zM832 51.2A140.8 140.8 0 0 1 972.8 192v128H896V192a64 64 0 0 0-56.512-63.552L832 128l-128-0.064V51.2h128z m-512 0v76.736L192 128a64 64 0 0 0-63.552 56.512L128 192v128H51.2V192A140.8 140.8 0 0 1 181.952 51.584L192 51.2h128z" fill="#6bd452" p-id="23213"></path></svg>