<svg t="1720353296453" class="icon" viewBox="0 0 1024 1024" version="1.1" xmlns="http://www.w3.org/2000/svg" p-id="1432" width="32" height="32"><path d="M65.815273 493.707636l427.892363 427.845819 427.845819-427.845819-427.845819-427.892363-427.892363 427.892363zM493.707636 0l493.661091 493.707636-493.661091 493.661091L0 493.707636 493.707636 0zM373.527273 340.619636l263.307636 263.307637a23.272727 23.272727 0 1 1-32.907636 32.907636L340.619636 373.527273a23.272727 23.272727 0 0 1 32.907637-32.907637z m263.307636 0a23.272727 23.272727 0 0 1 0 32.907637l-263.307636 263.307636a23.272727 23.272727 0 0 1-32.907637-32.907636l263.307637-263.307637a23.272727 23.272727 0 0 1 32.907636 0z" fill="#3068EC" p-id="1433"></path></svg>