<svg t="1719655043708" class="icon" viewBox="0 0 1024 1024" version="1.1" xmlns="http://www.w3.org/2000/svg" p-id="3502" width="32" height="32"><path d="M512 34.133333c263.918933 0 477.866667 213.947733 477.866667 477.866667s-213.947733 477.866667-477.866667 477.866667S34.133333 775.918933 34.133333 512 248.081067 34.133333 512 34.133333z m0 68.266667c-226.218667 0-409.6 183.381333-409.6 409.6s183.381333 409.6 409.6 409.6 409.6-183.381333 409.6-409.6-183.381333-409.6-409.6-409.6z m136.533333 256a17.066667 17.066667 0 0 1 17.066667 17.066667v273.066666a17.066667 17.066667 0 0 1-17.066667 17.066667H375.466667a17.066667 17.066667 0 0 1-17.066667-17.066667V375.466667a17.066667 17.066667 0 0 1 17.066667-17.066667h273.066666z" fill="#3068EC" fill-opacity=".72" p-id="3503"></path></svg>