<svg t="1721830317453" class="icon" viewBox="0 0 1024 1024" version="1.1" xmlns="http://www.w3.org/2000/svg" p-id="2732" width="32" height="32"><path d="M816.761905 24.380952A182.857143 182.857143 0 0 1 999.619048 207.238095v609.52381a182.857143 182.857143 0 0 1-182.857143 182.857143H207.238095A182.857143 182.857143 0 0 1 24.380952 816.761905V207.238095A182.857143 182.857143 0 0 1 207.238095 24.380952h609.52381z m0 121.904762h-15.262476v121.904762c0 58.904381-47.737905 106.691048-106.642286 106.691048h-365.714286A106.691048 106.691048 0 0 1 222.45181 268.190476V146.285714H207.238095c-33.645714 0-60.952381 27.306667-60.952381 60.952381v609.52381c0 33.645714 27.306667 60.952381 60.952381 60.952381h15.213715v-213.333334c0-58.904381 47.786667-106.691048 106.691047-106.691047h365.714286c58.904381 0 106.691048 47.786667 106.691047 106.691047L801.499429 877.714286h15.262476c33.645714 0 60.952381-27.306667 60.952381-60.952381V207.238095c0-33.645714-27.306667-60.952381-60.952381-60.952381z m-121.904762 502.881524h-365.714286a15.213714 15.213714 0 0 0-15.262476 15.213714V877.714286h396.190476v-213.333334a15.262476 15.262476 0 0 0-12.483047-14.969904l-2.730667-0.24381zM710.070857 146.285714H313.880381v121.904762c0 7.460571 5.412571 13.702095 12.531809 14.969905l2.730667 0.243809h365.714286c8.43581 0 15.262476-6.826667 15.262476-15.213714L710.070857 146.285714z" p-id="2733"></path></svg>