<svg t="1721656199910" class="icon" viewBox="0 0 1024 1024" version="1.1" xmlns="http://www.w3.org/2000/svg" p-id="1838" width="32" height="32"><path d="M596.146087 22.26087c46.658783 0 84.502261 37.843478 84.502261 84.50226v188.193392H819.2c31.031652 0 59.436522 17.007304 74.217739 44.076521l1.157565 2.226087 95.543653 188.193392a84.502261 84.502261 0 0 1-28.939131 108.900174c18.075826 118.694957 11.887304 217.35513-20.079304 296.247652A107.564522 107.564522 0 0 1 841.46087 1001.73913H148.791652a92.16 92.16 0 0 1-81.741913-134.767304c43.186087-82.899478 71.457391-157.96313 85.036522-224.923826a84.502261 84.502261 0 0 1-35.617391-111.660522l92.605217-188.237913c14.246957-28.894609 43.631304-47.193043 75.820522-47.193043h146.031304V106.76313c0-45.946435 36.685913-83.300174 82.320696-84.457739l2.226087-0.044521h80.673391z m246.917565 629.938087H259.650783c-13.490087 73.193739-41.405217 152.264348-83.522783 237.523478l-2.226087 4.452174h169.049044c22.617043-43.008 37.398261-83.745391 44.388173-122.167652a38.422261 38.422261 0 0 1 75.597913 13.890782 475.492174 475.492174 0 0 1-34.593391 108.27687h173.857391c20.613565-34.415304 33.391304-74.084174 38.288696-119.318261a38.422261 38.422261 0 0 1 76.354783 8.236522 382.263652 382.263652 0 0 1-28.493913 111.081739h153.154782l1.291131-3.294609c22.483478-57.967304 27.113739-135.791304 12.55513-233.20487l-0.712348-4.63026-11.575652-0.845913zM573.083826 129.825391h-34.593391v188.193392A84.502261 84.502261 0 0 1 456.214261 402.476522l-2.226087 0.044521H299.230609L229.286957 544.634435h647.969391l-72.125218-142.113392H657.586087a84.502261 84.502261 0 0 1-84.457739-82.276173l-0.044522-2.226087V129.825391z" p-id="1839"></path></svg>