<svg t="1721826860273" class="icon" viewBox="0 0 1072 1024" version="1.1" xmlns="http://www.w3.org/2000/svg" p-id="2285" width="32" height="32"><path d="M220.306286 290.816a67.047619 67.047619 0 0 1 0 134.095238H143.652571a9.557333 9.557333 0 0 0-9.557333 9.606095v421.449143c0 5.266286 4.291048 9.557333 9.557333 9.557334h766.293334a9.557333 9.557333 0 0 0 9.557333-9.557334V434.468571a9.557333 9.557333 0 0 0-9.557333-9.606095h-76.653715a67.047619 67.047619 0 1 1 0-134.095238h76.653715a143.652571 143.652571 0 0 1 143.652571 143.701333v421.449143a143.652571 143.652571 0 0 1-143.652571 143.652572H143.652571A143.652571 143.652571 0 0 1 0 855.966476V434.468571a143.652571 143.652571 0 0 1 143.652571-143.701333h76.653715zM526.823619 24.380952c37.010286 0 67.047619 30.037333 67.047619 67.047619v400.530286c0 6.680381-0.975238 13.116952-2.779428 19.163429h88.892952a48.761905 48.761905 0 0 1 34.474667 83.236571l-153.161143 153.209905a48.761905 48.761905 0 0 1-68.998096 0l-153.161142-153.209905a48.761905 48.761905 0 0 1 34.474666-83.236571h88.941715a67.047619 67.047619 0 0 1-2.779429-19.163429V91.428571c0-37.059048 29.988571-67.047619 67.047619-67.047619z" p-id="2286"></path></svg>