<svg t="1721828099082" class="icon" viewBox="0 0 1024 1024" version="1.1" xmlns="http://www.w3.org/2000/svg" p-id="2583" width="32" height="32"><path d="M459.869091 67.351273c21.317818-43.287273 82.944-43.287273 104.261818 0l123.252364 249.669818 275.642182 40.122182c45.754182 6.656 65.163636 60.788364 36.305454 94.906182l-4.049454 4.328727-199.447273 194.373818 47.104 274.525091c7.819636 45.614545-37.841455 80.849455-79.266909 63.767273l-5.12-2.420364L512 856.994909l-246.504727 129.629091c-40.96 21.504-88.622545-11.031273-85.131637-55.714909l0.698182-5.632 47.057455-274.525091L28.718545 456.378182c-33.093818-32.256-16.989091-87.505455 26.437819-98.117818l5.818181-1.117091L336.523636 316.974545l123.252364-249.669818zM512 224.488727L427.380364 396.008727a58.181818 58.181818 0 0 1-43.799273 31.837091l-189.253818 27.461818 136.936727 133.492364c12.194909 11.869091 18.478545 28.392727 17.454545 45.195636l-0.698181 6.283637-32.349091 188.416 169.239272-88.901818a58.181818 58.181818 0 0 1 47.662546-2.932364l6.516364 2.932364 169.192727 88.901818-32.302546-188.416a58.181818 58.181818 0 0 1 12.474182-46.824728l4.282182-4.654545 136.890182-133.492364-189.207273-27.461818a58.181818 58.181818 0 0 1-40.680727-26.298182l-3.118546-5.538909L512 224.488727z" p-id="2584"></path></svg>