<svg t="1721740059638" class="icon" viewBox="0 0 1331 1024" version="1.1" xmlns="http://www.w3.org/2000/svg" p-id="1987" width="32" height="32"><path d="M677.5808 25.6c278.8352 0 489.6768 156.16 624.896 456.704 8.4992 18.8928 8.4992 40.4992 0 59.392-135.2192 300.544-346.0608 456.704-624.896 456.704-277.8624 0-494.7968-154.9312-644.352-453.9904-10.1888-20.4288-10.1888-44.3904 0-64.8192C182.784 180.5824 399.7184 25.6 677.5808 25.6z m0 144.896c-207.0528 0-369.8176 108.288-493.8752 334.0288l-4.096 7.4752 4.096 7.4752c122.2656 222.5152 282.2144 330.9056 485.0176 333.9776l8.8576 0.0512c206.2848 0 362.24-107.3664 474.2656-332.1344l4.608-9.3696-4.608-9.3696c-110.4384-221.5936-263.6288-329.1136-465.5616-332.0832l-8.704-0.0512z m0 103.4752a238.0288 238.0288 0 1 1 0 476.0576 238.0288 238.0288 0 0 1 0-476.0576z m0 103.4752a134.5536 134.5536 0 1 0 0 269.1072 134.5536 134.5536 0 0 0 0-269.1072z" p-id="1988"></path></svg>