<svg t="1720354383153" class="icon" viewBox="0 0 1024 1024" version="1.1" xmlns="http://www.w3.org/2000/svg" p-id="2036" width="32" height="32"><path d="M933.813029 650.093714h-110.811429V488.228571a8.557714 8.557714 0 0 0-8.484571-8.557714H550.325029V377.417143h115.053714a17.115429 17.115429 0 0 0 17.042286-17.042286V53.613714A17.115429 17.115429 0 0 0 665.378743 36.571429H358.6176a17.115429 17.115429 0 0 0-17.042286 17.042285v306.761143c0 9.362286 7.68 17.042286 17.042286 17.042286h115.053714v102.253714H209.479314a8.557714 8.557714 0 0 0-8.484571 8.557714v161.865143H90.183314A17.115429 17.115429 0 0 0 73.141029 667.136v306.834286c0 9.362286 7.68 17.042286 17.042285 17.042285h306.761143a17.115429 17.115429 0 0 0 17.042286-17.042285V667.062857a17.115429 17.115429 0 0 0-17.042286-17.042286h-119.222857V556.397714h468.626286v93.696H627.051886a17.115429 17.115429 0 0 0-17.042286 17.042286v306.834286c0 9.362286 7.68 17.042286 17.042286 17.042285h306.761143a17.115429 17.115429 0 0 0 17.042285-17.042285V667.062857a17.115429 17.115429 0 0 0-17.042285-17.042286zM333.0176 731.062857v178.980572H154.110171V731.062857h178.907429z m89.526857-434.614857V117.540571h178.907429v178.907429H422.544457z m447.341714 613.595429H690.978743V731.062857h178.907428v178.980572z" fill="#3068EC" p-id="2037"></path></svg>